<svg preserveAspectRatio="none" width="100%" height="100%" overflow="visible" style="display: block;" viewBox="0 0 16 16" fill="none" xmlns="http://www.w3.org/2000/svg">
<g id="crown">
<mask id="mask0_183_903" style="mask-type:alpha" maskUnits="userSpaceOnUse" x="0" y="0" width="16" height="16">
<rect id="Bounding box" width="16" height="16" fill="var(--fill-0, #D9D9D9)"/>
</mask>
<g mask="url(#mask0_183_903)">
<path id="crown_2" d="M4.26602 12.1333V11.0666H11.7327V12.1333H4.26602ZM4.26602 10.2666L3.58602 5.98663C3.56824 5.98663 3.54824 5.98886 3.52602 5.9933C3.50379 5.99775 3.48379 5.99997 3.46602 5.99997C3.24379 5.99997 3.0549 5.92219 2.89935 5.76663C2.74379 5.61108 2.66602 5.42219 2.66602 5.19997C2.66602 4.97775 2.74379 4.78886 2.89935 4.6333C3.0549 4.47775 3.24379 4.39997 3.46602 4.39997C3.68824 4.39997 3.87713 4.47775 4.03268 4.6333C4.18824 4.78886 4.26602 4.97775 4.26602 5.19997C4.26602 5.26219 4.25935 5.31997 4.24602 5.3733C4.23268 5.42663 4.21713 5.47552 4.19935 5.51997L5.86602 6.26663L7.53268 3.98663C7.4349 3.91552 7.3549 3.82219 7.29268 3.70663C7.23046 3.59108 7.19935 3.46663 7.19935 3.3333C7.19935 3.11108 7.27713 2.92219 7.43268 2.76663C7.58824 2.61108 7.77713 2.5333 7.99935 2.5333C8.22157 2.5333 8.41046 2.61108 8.56602 2.76663C8.72157 2.92219 8.79935 3.11108 8.79935 3.3333C8.79935 3.46663 8.76824 3.59108 8.70602 3.70663C8.64379 3.82219 8.56379 3.91552 8.46602 3.98663L10.1327 6.26663L11.7993 5.51997C11.7816 5.47552 11.766 5.42663 11.7527 5.3733C11.7393 5.31997 11.7327 5.26219 11.7327 5.19997C11.7327 4.97775 11.8105 4.78886 11.966 4.6333C12.1216 4.47775 12.3105 4.39997 12.5327 4.39997C12.7549 4.39997 12.9438 4.47775 13.0993 4.6333C13.2549 4.78886 13.3327 4.97775 13.3327 5.19997C13.3327 5.42219 13.2549 5.61108 13.0993 5.76663C12.9438 5.92219 12.7549 5.99997 12.5327 5.99997C12.5149 5.99997 12.4949 5.99775 12.4727 5.9933C12.4505 5.98886 12.4305 5.98663 12.4127 5.98663L11.7327 10.2666H4.26602ZM5.17268 9.19997H10.826L11.1727 6.9733L9.77268 7.58663L7.99935 5.14663L6.22602 7.58663L4.82602 6.9733L5.17268 9.19997Z" fill="var(--fill-0, white)"/>
</g>
</g>
</svg>
