<svg preserveAspectRatio="none" width="100%" height="100%" overflow="visible" style="display: block;" viewBox="0 0 78.4012 13.0002" fill="none" xmlns="http://www.w3.org/2000/svg">
<g id="Group">
<g id="Icon / Mobile Signal">
<path d="M10 4C10 3.44772 10.4477 3 11 3H12C12.5523 3 13 3.44772 13 4V12C13 12.5523 12.5523 13 12 13H11C10.4477 13 10 12.5523 10 12V4Z" fill="var(--fill-0, #232933)"/>
<path d="M15 2C15 1.44772 15.4477 1 16 1H17C17.5523 1 18 1.44772 18 2V12C18 12.5523 17.5523 13 17 13H16C15.4477 13 15 12.5523 15 12V2Z" fill="var(--fill-0, #232933)"/>
<path d="M5 7.5C5 6.94772 5.44772 6.5 6 6.5H7C7.55228 6.5 8 6.94772 8 7.5V12C8 12.5523 7.55228 13 7 13H6C5.44772 13 5 12.5523 5 12V7.5Z" fill="var(--fill-0, #232933)"/>
<path d="M0 10C0 9.44772 0.447715 9 1 9H2C2.55228 9 3 9.44772 3 10V12C3 12.5523 2.55228 13 2 13H1C0.447715 13 0 12.5523 0 12V10Z" fill="var(--fill-0, #232933)"/>
</g>
<path id="Wifi" d="M32.1152 10.0852C33.535 8.8596 35.6144 8.85974 37.0342 10.0852C37.1056 10.1511 37.1474 10.2447 37.1494 10.343C37.1514 10.4412 37.1136 10.5358 37.0449 10.6047L34.8213 12.8947C34.7562 12.962 34.6678 13.0001 34.5752 13.0002C34.4825 13.0002 34.3933 12.962 34.3281 12.8947L32.1045 10.6047C32.0359 10.5358 31.998 10.4412 32 10.343C32.002 10.2447 32.0437 10.151 32.1152 10.0852ZM29.1094 7.34493C32.1685 4.44033 36.9058 4.44033 39.9648 7.34493C40.0339 7.41303 40.0732 7.50671 40.0742 7.60469C40.0751 7.70257 40.0373 7.79697 39.9697 7.86641L38.6846 9.19161C38.5521 9.32689 38.338 9.3302 38.2021 9.19844C37.1977 8.27002 35.8912 7.75603 34.5361 7.75606C33.1818 7.75663 31.876 8.27053 30.8721 9.19844C30.7362 9.33019 30.5221 9.32696 30.3896 9.19161L29.1045 7.86641C29.0367 7.79705 28.9992 7.70263 29 7.60469C29.0009 7.50673 29.0404 7.41302 29.1094 7.34493ZM26.1074 4.6086C30.7993 0.01899 38.2007 0.019053 42.8926 4.6086C42.9605 4.67679 42.9994 4.77015 43 4.86739C43.0005 4.96448 42.9625 5.05826 42.8955 5.12715L41.6094 6.45235C41.4768 6.58833 41.2616 6.59004 41.127 6.45625C39.3393 4.72149 36.9666 3.75422 34.5 3.75411C32.0334 3.75422 29.6608 4.72148 27.873 6.45625C27.7385 6.59015 27.523 6.5885 27.3906 6.45235L26.1035 5.12715C26.0365 5.05823 25.9995 4.96445 26 4.86739C26.0006 4.77015 26.0395 4.67674 26.1074 4.6086Z" fill="var(--fill-0, #232933)"/>
<g id="_StatusBar-battery">
<path id="Outline" opacity="0.35" d="M55 0.5H72C73.933 0.5 75.5 2.067 75.5 4V9C75.5 10.933 73.933 12.5 72 12.5H55C53.067 12.5 51.5 10.933 51.5 9V4C51.5 2.067 53.067 0.5 55 0.5Z" stroke="var(--stroke-0, #232933)"/>
<path id="Battery End" opacity="0.4" d="M77 5V9.22034C77.8491 8.86291 78.4012 8.0314 78.4012 7.11017C78.4012 6.18894 77.8491 5.35744 77 5" fill="var(--fill-0, #232933)"/>
<path id="Fill" d="M53 4C53 2.89543 53.8954 2 55 2H72C73.1046 2 74 2.89543 74 4V9C74 10.1046 73.1046 11 72 11H55C53.8954 11 53 10.1046 53 9V4Z" fill="var(--fill-0, #232933)"/>
</g>
</g>
</svg>
