<svg preserveAspectRatio="none" width="100%" height="100%" overflow="visible" style="display: block;" viewBox="0 0 16 16" fill="none" xmlns="http://www.w3.org/2000/svg">
<g id="visibility">
<mask id="mask0_170_807" style="mask-type:alpha" maskUnits="userSpaceOnUse" x="0" y="0" width="16" height="16">
<rect id="Bounding box" width="16" height="16" fill="var(--fill-0, #D9D9D9)"/>
</mask>
<g mask="url(#mask0_170_807)">
<path id="visibility_2" d="M8.00136 10.5179C8.70124 10.5179 9.29563 10.2729 9.78452 9.78304C10.2734 9.29315 10.5179 8.69826 10.5179 7.99837C10.5179 7.29848 10.2729 6.70409 9.78302 6.2152C9.29313 5.72631 8.69824 5.48187 7.99836 5.48187C7.29847 5.48187 6.70408 5.72681 6.21519 6.2167C5.7263 6.70659 5.48185 7.30148 5.48185 8.00137C5.48185 8.70126 5.7268 9.29565 6.21669 9.78454C6.70658 10.2734 7.30147 10.5179 8.00136 10.5179ZM7.99986 9.59987C7.55541 9.59987 7.17763 9.44431 6.86652 9.1332C6.55541 8.82209 6.39985 8.44431 6.39985 7.99987C6.39985 7.55543 6.55541 7.17765 6.86652 6.86654C7.17763 6.55543 7.55541 6.39987 7.99986 6.39987C8.4443 6.39987 8.82208 6.55543 9.13319 6.86654C9.4443 7.17765 9.59986 7.55543 9.59986 7.99987C9.59986 8.44431 9.4443 8.82209 9.13319 9.1332C8.82208 9.44431 8.4443 9.59987 7.99986 9.59987ZM8.00069 12.4665C6.50547 12.4665 5.14308 12.0603 3.91352 11.2479C2.68397 10.4355 1.76574 9.35287 1.15885 7.99987C1.76574 6.64687 2.68363 5.5642 3.91252 4.75187C5.14152 3.93943 6.50369 3.5332 7.99902 3.5332C9.49424 3.5332 10.8566 3.93943 12.0862 4.75187C13.3157 5.5642 14.234 6.64687 14.8409 7.99987C14.234 9.35287 13.3161 10.4355 12.0872 11.2479C10.8582 12.0603 9.49602 12.4665 8.00069 12.4665ZM7.99986 11.5999C9.2443 11.5999 10.3943 11.2776 11.4499 10.6332C12.5054 9.98876 13.3165 9.11098 13.8832 7.99987C13.3165 6.88876 12.5054 6.01098 11.4499 5.36654C10.3943 4.72209 9.2443 4.39987 7.99986 4.39987C6.75541 4.39987 5.60541 4.72209 4.54985 5.36654C3.4943 6.01098 2.68319 6.88876 2.11652 7.99987C2.68319 9.11098 3.4943 9.98876 4.54985 10.6332C5.60541 11.2776 6.75541 11.5999 7.99986 11.5999Z" fill="var(--fill-0, black)"/>
</g>
</g>
</svg>
