<svg preserveAspectRatio="none" width="100%" height="100%" overflow="visible" style="display: block;" viewBox="0 0 20 20" fill="none" xmlns="http://www.w3.org/2000/svg">
<g id="thumb_up">
<mask id="mask0_170_847" style="mask-type:alpha" maskUnits="userSpaceOnUse" x="0" y="0" width="20" height="20">
<rect id="Bounding box" width="20" height="20" fill="var(--fill-0, #D9D9D9)"/>
</mask>
<g mask="url(#mask0_170_847)">
<path id="thumb_up_2" d="M15 17.5H5.83333V6.66667L11.6667 0.833333L12.7083 1.875C12.8056 1.97222 12.8854 2.10417 12.9479 2.27083C13.0104 2.4375 13.0417 2.59722 13.0417 2.75V3.04167L12.125 6.66667H17.5C17.9444 6.66667 18.3333 6.83333 18.6667 7.16667C19 7.5 19.1667 7.88889 19.1667 8.33333V10C19.1667 10.0972 19.1528 10.2014 19.125 10.3125C19.0972 10.4236 19.0694 10.5278 19.0417 10.625L16.5417 16.5C16.4167 16.7778 16.2083 17.0139 15.9167 17.2083C15.625 17.4028 15.3194 17.5 15 17.5ZM7.5 15.8333H15L17.5 10V8.33333H10L11.125 3.75L7.5 7.375V15.8333ZM5.83333 6.66667V8.33333H3.33333V15.8333H5.83333V17.5H1.66667V6.66667H5.83333Z" fill="var(--fill-0, #119C59)"/>
</g>
</g>
</svg>
