<svg preserveAspectRatio="none" width="100%" height="100%" overflow="visible" style="display: block;" viewBox="0 0 16 16" fill="none" xmlns="http://www.w3.org/2000/svg">
<g id="kid_star">
<mask id="mask0_170_791" style="mask-type:alpha" maskUnits="userSpaceOnUse" x="0" y="0" width="16" height="16">
<rect id="Bounding box" width="16" height="16" fill="var(--fill-0, #F0951C)"/>
</mask>
<g mask="url(#mask0_170_791)">
<path id="kid_star_2" d="M5.37648 4.60659L7.05648 2.43159C7.17648 2.27159 7.31898 2.15409 7.48398 2.07909C7.64898 2.00409 7.82148 1.96659 8.00148 1.96659C8.18148 1.96659 8.35398 2.00409 8.51898 2.07909C8.68398 2.15409 8.82648 2.27159 8.94648 2.43159L10.6265 4.60659L13.1765 5.46159C13.4365 5.54159 13.6415 5.68909 13.7915 5.90409C13.9415 6.11909 14.0165 6.35659 14.0165 6.61659C14.0165 6.73659 13.999 6.85659 13.964 6.97659C13.929 7.09659 13.8715 7.21159 13.7915 7.32159L12.1415 9.66159L12.2015 12.1216C12.2115 12.4716 12.0965 12.7666 11.8565 13.0066C11.6165 13.2466 11.3365 13.3666 11.0165 13.3666C10.9965 13.3666 10.8865 13.3516 10.6865 13.3216L8.00148 12.5716L5.31648 13.3216C5.26648 13.3416 5.21148 13.3541 5.15148 13.3591C5.09148 13.3641 5.03648 13.3666 4.98648 13.3666C4.66648 13.3666 4.38648 13.2466 4.14648 13.0066C3.90648 12.7666 3.79148 12.4716 3.80148 12.1216L3.86148 9.64659L2.22648 7.32159C2.14648 7.21159 2.08898 7.09659 2.05398 6.97659C2.01898 6.85659 2.00148 6.73659 2.00148 6.61659C2.00148 6.36659 2.07398 6.13409 2.21898 5.91909C2.36398 5.70409 2.56648 5.55159 2.82648 5.46159L5.37648 4.60659Z" fill="var(--fill-0, #F0951C)"/>
</g>
</g>
</svg>
