<svg preserveAspectRatio="none" width="100%" height="100%" overflow="visible" style="display: block;" viewBox="0 0 24 24" fill="none" xmlns="http://www.w3.org/2000/svg">
<g id="back_to_tab">
<mask id="mask0_170_799" style="mask-type:alpha" maskUnits="userSpaceOnUse" x="0" y="0" width="24" height="24">
<rect id="Bounding box" width="24" height="24" fill="var(--fill-0, #D9D9D9)"/>
</mask>
<g mask="url(#mask0_170_799)">
<path id="back_to_tab_2" d="M8.9 11.9692L4 7.06925V10.8078H2.5V4.5H8.80775V6H5.04425L9.96925 10.9L8.9 11.9692ZM4.30775 19.5C3.80258 19.5 3.375 19.325 3.025 18.975C2.675 18.625 2.5 18.1974 2.5 17.6923V13H4V17.6923C4 17.7821 4.02883 17.8558 4.0865 17.9135C4.14417 17.9712 4.21792 18 4.30775 18H11.8845V19.5H4.30775ZM20 12.8845V6.30775C20 6.21792 19.9712 6.14417 19.9135 6.0865C19.8558 6.02883 19.7821 6 19.6923 6H11V4.5H19.6923C20.1974 4.5 20.625 4.675 20.975 5.025C21.325 5.375 21.5 5.80258 21.5 6.30775V12.8845H20ZM21.5 15.077V19.5H14.077V15.077H21.5Z" fill="var(--fill-0, white)"/>
</g>
</g>
</svg>
