<svg preserveAspectRatio="none" width="100%" height="100%" overflow="visible" style="display: block;" viewBox="0 0 21.8692 21.8692" fill="none" xmlns="http://www.w3.org/2000/svg">
<g id="ic:baseline-call">
<path id="Vector" d="M18.2334 14.0144C17.1126 14.0144 16.0283 13.8322 15.0168 13.5041C14.8584 13.4504 14.688 13.4425 14.5252 13.4811C14.3625 13.5198 14.2139 13.6036 14.0965 13.7228L12.6659 15.5179C10.0872 14.2878 7.67246 11.9642 6.38764 9.29434L8.16451 7.78172C8.41054 7.52658 8.48344 7.1712 8.3832 6.85228C8.04605 5.84083 7.87292 4.75648 7.87292 3.63569C7.87292 3.14363 7.46288 2.73359 6.97082 2.73359H3.81802C3.32596 2.73359 2.73367 2.95228 2.73367 3.63569C2.73367 12.1009 9.77736 19.1355 18.2334 19.1355C18.8804 19.1355 19.1355 18.5614 19.1355 18.0602V14.9165C19.1355 14.4245 18.7255 14.0144 18.2334 14.0144Z" fill="var(--fill-0, #5C5C5C)"/>
</g>
</svg>
