<svg preserveAspectRatio="none" width="100%" height="100%" overflow="visible" style="display: block;" viewBox="0 0 21.8692 21.8692" fill="none" xmlns="http://www.w3.org/2000/svg">
<g id="ic:baseline-more-vert">
<path id="Vector" d="M10.9346 7.28966C11.9369 7.28966 12.757 6.46957 12.757 5.46723C12.757 4.4649 11.9369 3.6448 10.9346 3.6448C9.93225 3.6448 9.11215 4.4649 9.11215 5.46723C9.11215 6.46957 9.93225 7.28966 10.9346 7.28966ZM10.9346 9.11209C9.93225 9.11209 9.11215 9.93219 9.11215 10.9345C9.11215 11.9369 9.93225 12.757 10.9346 12.757C11.9369 12.757 12.757 11.9369 12.757 10.9345C12.757 9.93219 11.9369 9.11209 10.9346 9.11209ZM10.9346 14.5794C9.93225 14.5794 9.11215 15.3995 9.11215 16.4018C9.11215 17.4041 9.93225 18.2242 10.9346 18.2242C11.9369 18.2242 12.757 17.4041 12.757 16.4018C12.757 15.3995 11.9369 14.5794 10.9346 14.5794Z" fill="var(--fill-0, #5C5C5C)"/>
</g>
</svg>
