<svg preserveAspectRatio="none" width="100%" height="100%" overflow="visible" style="display: block;" viewBox="0 0 24 24" fill="none" xmlns="http://www.w3.org/2000/svg">
<g id="video_camera_back_add">
<mask id="mask0_170_823" style="mask-type:alpha" maskUnits="userSpaceOnUse" x="0" y="0" width="24" height="24">
<rect id="Bounding box" width="24" height="24" fill="var(--fill-0, #D9D9D9)"/>
</mask>
<g mask="url(#mask0_170_823)">
<path id="video_camera_back_add_2" d="M4 20C3.45 20 2.97917 19.8042 2.5875 19.4125C2.19583 19.0208 2 18.55 2 18V12H4V18H16V6H10V4H16C16.55 4 17.0208 4.19583 17.4125 4.5875C17.8042 4.97917 18 5.45 18 6V10.5L22 6.5V17.5L18 13.5V18C18 18.55 17.8042 19.0208 17.4125 19.4125C17.0208 19.8042 16.55 20 16 20H4ZM5 16H15L11.625 11.5L9 15L7.375 12.825L5 16ZM4 10V8H2V6H4V4H6V6H8V8H6V10H4Z" fill="var(--fill-0, #119C59)"/>
</g>
</g>
</svg>
