<svg preserveAspectRatio="none" width="100%" height="100%" overflow="visible" style="display: block;" viewBox="0 0 21.8692 21.8692" fill="none" xmlns="http://www.w3.org/2000/svg">
<g id="mdi:video">
<path id="Vector" d="M15.4907 9.5677V6.37845C15.4907 6.13678 15.3947 5.90501 15.2238 5.73412C15.0529 5.56324 14.8211 5.46723 14.5795 5.46723H3.64488C3.40321 5.46723 3.17144 5.56324 3.00055 5.73412C2.82966 5.90501 2.73366 6.13678 2.73366 6.37845V15.4906C2.73366 15.7323 2.82966 15.964 3.00055 16.1349C3.17144 16.3058 3.40321 16.4018 3.64488 16.4018H14.5795C14.8211 16.4018 15.0529 16.3058 15.2238 16.1349C15.3947 15.964 15.4907 15.7323 15.4907 15.4906V12.3013L19.1355 15.9462V5.92284L15.4907 9.5677Z" fill="var(--fill-0, #5C5C5C)"/>
</g>
</svg>
