<svg preserveAspectRatio="none" width="100%" height="100%" overflow="visible" style="display: block;" viewBox="0 0 20 20" fill="none" xmlns="http://www.w3.org/2000/svg">
<g id="sms">
<mask id="mask0_170_857" style="mask-type:alpha" maskUnits="userSpaceOnUse" x="0" y="0" width="20" height="20">
<rect id="Bounding box" width="20" height="20" fill="var(--fill-0, #D9D9D9)"/>
</mask>
<g mask="url(#mask0_170_857)">
<path id="sms_2" d="M6.74432 9.15377C6.92349 9.15377 7.078 9.09037 7.20786 8.96356C7.33759 8.83662 7.40245 8.68356 7.40245 8.5044C7.40245 8.32523 7.33905 8.17072 7.21224 8.04085C7.0853 7.91113 6.93224 7.84627 6.75307 7.84627C6.57391 7.84627 6.41939 7.90967 6.28953 8.03648C6.15981 8.16342 6.09495 8.31648 6.09495 8.49564C6.09495 8.67481 6.15835 8.82933 6.28516 8.95919C6.4121 9.08891 6.56516 9.15377 6.74432 9.15377ZM9.99432 9.15377C10.1735 9.15377 10.328 9.09037 10.4579 8.96356C10.5876 8.83662 10.6524 8.68356 10.6524 8.5044C10.6524 8.32523 10.589 8.17072 10.4622 8.04085C10.3353 7.91113 10.1822 7.84627 10.0031 7.84627C9.82391 7.84627 9.66939 7.90967 9.53953 8.03648C9.40981 8.16342 9.34495 8.31648 9.34495 8.49564C9.34495 8.67481 9.40835 8.82933 9.53516 8.95919C9.6621 9.08891 9.81516 9.15377 9.99432 9.15377ZM13.2443 9.15377C13.4235 9.15377 13.578 9.09037 13.7079 8.96356C13.8376 8.83662 13.9024 8.68356 13.9024 8.5044C13.9024 8.32523 13.839 8.17072 13.7122 8.04085C13.5853 7.91113 13.4322 7.84627 13.2531 7.84627C13.0739 7.84627 12.9194 7.90967 12.7895 8.03648C12.6598 8.16342 12.5949 8.31648 12.5949 8.49564C12.5949 8.67481 12.6584 8.82933 12.7852 8.95919C12.9121 9.08891 13.0652 9.15377 13.2443 9.15377ZM2.41536 17.1988V3.75648C2.41536 3.38134 2.54488 3.06426 2.80391 2.80523C3.06293 2.5462 3.38002 2.41669 3.75516 2.41669H16.2422C16.6174 2.41669 16.9345 2.5462 17.1935 2.80523C17.4525 3.06426 17.582 3.38134 17.582 3.75648V13.2436C17.582 13.6187 17.4525 13.9358 17.1935 14.1948C16.9345 14.4538 16.6174 14.5834 16.2422 14.5834H5.03078L2.41536 17.1988ZM4.58203 13.5H16.2422C16.3064 13.5 16.3652 13.4733 16.4185 13.4198C16.472 13.3665 16.4987 13.3077 16.4987 13.2436V3.75648C16.4987 3.69231 16.472 3.63356 16.4185 3.58023C16.3652 3.52676 16.3064 3.50002 16.2422 3.50002H3.75516C3.69099 3.50002 3.63224 3.52676 3.57891 3.58023C3.52543 3.63356 3.4987 3.69231 3.4987 3.75648V14.5915L4.58203 13.5Z" fill="var(--fill-0, #6D6D6D)"/>
</g>
</g>
</svg>
